<?xml version="1.0" encoding="UTF-8" standalone="no"?>
<!DOCTYPE svg PUBLIC "-//W3C//DTD SVG 1.1//EN" "http://www.w3.org/Graphics/SVG/1.1/DTD/svg11.dtd">
<svg xmlns="http://www.w3.org/2000/svg" version="1.1" viewBox="0.00 0.00 1833.00 1143.00">
<g stroke-width="2.00" fill="none" stroke-linecap="butt">
<path stroke="#699bf3" vector-effect="non-scaling-stroke" d="
  M 997.00 225.79
  C 996.06 226.80 999.60 227.05 999.27 229.44
  C 998.54 234.83 999.01 240.88 999.00 246.35
  C 998.99 247.87 998.01 249.03 998.01 250.73
  Q 997.99 264.68 998.00 278.63
  C 998.01 280.57 996.93 282.05 996.95 284.00
  Q 997.15 300.65 996.82 317.31
  Q 996.82 317.39 996.74 317.42
  Q 996.55 317.48 996.35 317.55
  A 0.62 0.61 80.5 0 0 995.93 318.15
  Q 996.27 331.93 995.68 345.70
  Q 995.66 346.29 996.07 346.71
  Q 996.78 347.47 996.78 348.52
  Q 996.77 349.03 997.25 349.21
  Q 1000.13 350.28 998.87 352.53"
/>
<path stroke="#6aaaf3" vector-effect="non-scaling-stroke" d="
  M 716.58 322.59
  Q 716.23 320.99 717.68 320.75
  Q 718.15 320.67 718.55 320.43
  Q 721.33 318.80 724.35 317.62
  Q 724.44 317.58 724.30 317.55
  Q 724.22 317.52 724.16 317.50
  A 0.19 0.18 -34.5 0 1 724.23 317.16
  L 727.74 316.56
  A 0.36 0.36 0.0 0 0 728.04 316.19
  Q 727.63 302.79 727.77 290.50
  C 727.79 288.96 728.75 287.50 728.75 285.78
  Q 728.74 271.21 728.76 256.63
  C 728.77 254.65 729.86 253.20 729.80 251.02
  Q 729.48 239.81 730.14 228.58
  A 0.39 0.39 0.0 0 0 729.45 228.30
  L 728.71 229.13
  Q 728.50 229.37 728.50 229.06
  Q 728.50 228.92 728.50 228.78
  A 0.33 0.33 0.0 0 0 727.91 228.56
  Q 726.77 229.92 725.05 229.77
  Q 724.60 229.73 724.28 230.04
  Q 723.17 231.16 721.75 231.10
  Q 721.30 231.08 720.87 231.26
  C 719.50 231.85 717.51 233.52 716.50 231.29"
/>
<path stroke="#6aaaf3" vector-effect="non-scaling-stroke" d="
  M 730.80 922.51
  L 730.61 921.47
  Q 730.50 920.86 730.00 921.23
  Q 728.95 922.04 727.67 922.11
  Q 727.22 922.14 726.85 922.40
  Q 725.64 923.26 724.49 922.40
  Q 724.10 922.11 724.08 921.63
  Q 723.51 908.82 723.78 896.00
  C 723.82 894.03 724.76 892.50 724.76 890.64
  Q 724.74 876.84 724.76 863.06
  C 724.76 861.10 725.76 859.54 725.76 857.53
  Q 725.74 843.29 725.76 829.05
  C 725.76 827.10 726.76 825.54 726.76 823.54
  Q 726.74 808.79 726.76 794.05
  C 726.76 792.10 727.76 790.54 727.76 788.53
  Q 727.74 774.27 727.76 760.01
  C 727.76 758.14 728.76 756.73 728.76 754.86
  Q 728.74 740.78 728.76 726.71
  C 728.76 725.02 729.75 723.67 729.75 721.95
  Q 729.75 691.32 729.75 660.70
  C 729.75 659.02 730.75 657.66 730.75 655.95
  Q 730.74 641.45 730.76 626.95
  C 730.76 625.26 731.73 623.95 731.83 622.58
  Q 732.38 615.00 730.57 607.69
  A 0.10 0.10 0.0 0 0 730.41 607.64
  L 730.02 608.00
  Q 729.90 608.11 729.94 608.26
  L 730.81 611.08
  Q 730.99 611.68 730.37 611.74
  Q 730.13 611.76 729.81 611.71
  A 0.19 0.19 0.0 0 0 729.61 611.98
  Q 730.11 613.18 729.51 614.24
  A 0.18 0.18 0.0 0 1 729.18 614.09
  Q 729.52 612.94 728.75 612.46"
/>
</g>
<path fill="#888bdf" d="
  M 597.16 55.41
  C 665.51 -18.93 785.26 -10.84 843.06 71.18
  Q 876.66 118.87 871.79 179.61
  Q 871.70 180.75 870.55 180.73
  C 775.87 179.23 667.47 200.63 597.32 269.94
  Q 596.97 270.29 596.63 269.92
  C 540.83 208.66 541.34 116.15 597.16 55.41
  Z"
/>
<circle fill="#888bdf" cx="1119.28" cy="162.93" r="71.12"/>
<path fill="#6aa4f3" d="
  M 997.00 225.79
  C 996.06 226.80 999.60 227.05 999.27 229.44
  C 998.54 234.83 999.01 240.88 999.00 246.35
  C 998.99 247.87 998.01 249.03 998.01 250.73
  Q 997.99 264.68 998.00 278.63
  C 998.01 280.57 996.93 282.05 996.95 284.00
  Q 997.15 300.65 996.82 317.31
  Q 996.82 317.39 996.74 317.42
  Q 996.55 317.48 996.35 317.55
  A 0.62 0.61 80.5 0 0 995.93 318.15
  Q 996.27 331.93 995.68 345.70
  Q 995.66 346.29 996.07 346.71
  Q 996.78 347.47 996.78 348.52
  Q 996.77 349.03 997.25 349.21
  Q 1000.13 350.28 998.87 352.53
  C 949.33 300.35 875.76 290.24 807.75 296.71
  C 775.80 299.75 744.96 307.48 716.58 322.59
  Q 716.23 320.99 717.68 320.75
  Q 718.15 320.67 718.55 320.43
  Q 721.33 318.80 724.35 317.62
  Q 724.44 317.58 724.30 317.55
  Q 724.22 317.52 724.16 317.50
  A 0.19 0.18 -34.5 0 1 724.23 317.16
  L 727.74 316.56
  A 0.36 0.36 0.0 0 0 728.04 316.19
  Q 727.63 302.79 727.77 290.50
  C 727.79 288.96 728.75 287.50 728.75 285.78
  Q 728.74 271.21 728.76 256.63
  C 728.77 254.65 729.86 253.20 729.80 251.02
  Q 729.48 239.81 730.14 228.58
  A 0.39 0.39 0.0 0 0 729.45 228.30
  L 728.71 229.13
  Q 728.50 229.37 728.50 229.06
  Q 728.50 228.92 728.50 228.78
  A 0.33 0.33 0.0 0 0 727.91 228.56
  Q 726.77 229.92 725.05 229.77
  Q 724.60 229.73 724.28 230.04
  Q 723.17 231.16 721.75 231.10
  Q 721.30 231.08 720.87 231.26
  C 719.50 231.85 717.51 233.52 716.50 231.29
  Q 766.83 214.25 822.51 210.57
  C 882.16 206.62 941.54 210.46 997.00 225.79
  Z"
/>
<path fill="#6891f2" d="
  M 997.00 225.79
  C 1076.42 248.61 1140.43 301.19 1158.15 385.08
  C 1160.75 397.41 1160.29 410.06 1160.25 422.78
  C 1160.13 462.88 1143.53 502.29 1120.40 534.44
  C 1095.91 568.49 1060.17 589.93 1020.13 600.73
  A 0.56 0.56 0.0 0 0 1020.17 601.82
  C 1038.43 605.21 1058.09 614.01 1069.77 628.97
  C 1088.55 653.04 1091.31 694.96 1091.51 724.19
  Q 1091.74 756.84 1093.59 789.44
  Q 1094.68 808.63 1097.52 825.24
  C 1102.81 856.13 1127.79 861.10 1154.08 853.40
  C 1203.18 839.01 1231.96 769.62 1245.88 726.04
  A 0.55 0.55 0.0 0 1 1246.87 725.90
  L 1276.27 770.95
  Q 1276.56 771.39 1276.41 771.90
  C 1256.70 840.70 1217.36 905.87 1143.68 926.16
  Q 1109.10 935.68 1073.24 933.60
  C 1037.26 931.51 1000.24 912.76 983.18 879.32
  Q 973.67 860.69 969.34 840.23
  C 963.03 810.42 961.01 780.10 960.77 749.68
  C 960.56 721.81 959.32 692.05 949.92 665.54
  C 940.21 638.14 913.28 628.47 886.43 626.97
  Q 885.29 626.91 885.44 625.78
  L 895.61 547.20
  Q 895.69 546.56 896.34 546.51
  Q 899.15 546.33 905.00 546.27
  C 964.28 545.62 1016.69 507.69 1026.22 447.27
  Q 1034.92 392.14 998.87 352.53
  Q 1000.13 350.28 997.25 349.21
  Q 996.77 349.03 996.78 348.52
  Q 996.78 347.47 996.07 346.71
  Q 995.66 346.29 995.68 345.70
  Q 996.27 331.93 995.93 318.15
  A 0.62 0.61 80.5 0 1 996.35 317.55
  Q 996.55 317.48 996.74 317.42
  Q 996.82 317.39 996.82 317.31
  Q 997.15 300.65 996.95 284.00
  C 996.93 282.05 998.01 280.57 998.00 278.63
  Q 997.99 264.68 998.01 250.73
  C 998.01 249.03 998.99 247.87 999.00 246.35
  C 999.01 240.88 998.54 234.83 999.27 229.44
  C 999.60 227.05 996.06 226.80 997.00 225.79
  Z"
/>
<path fill="#6aaff3" d="
  M 716.58 322.59
  C 682.28 341.00 654.73 368.38 652.11 409.24
  C 649.14 455.56 690.25 470.66 727.92 475.40
  A 0.47 0.47 0.0 0 1 728.33 475.96
  L 715.30 545.82
  Q 715.20 546.34 714.67 546.33
  C 675.95 545.48 637.55 528.90 608.65 503.87
  C 570.74 471.04 563.75 426.94 571.65 379.60
  C 584.63 301.80 645.64 255.66 716.50 231.29
  C 717.51 233.52 719.50 231.85 720.87 231.26
  Q 721.30 231.08 721.75 231.10
  Q 723.17 231.16 724.28 230.04
  Q 724.60 229.73 725.05 229.77
  Q 726.77 229.92 727.91 228.56
  A 0.33 0.33 0.0 0 1 728.50 228.78
  Q 728.50 228.92 728.50 229.06
  Q 728.50 229.37 728.71 229.13
  L 729.45 228.30
  A 0.39 0.39 0.0 0 1 730.14 228.58
  Q 729.48 239.81 729.80 251.02
  C 729.86 253.20 728.77 254.65 728.76 256.63
  Q 728.74 271.21 728.75 285.78
  C 728.75 287.50 727.79 288.96 727.77 290.50
  Q 727.63 302.79 728.04 316.19
  A 0.36 0.36 0.0 0 1 727.74 316.56
  L 724.23 317.16
  A 0.19 0.18 -34.5 0 0 724.16 317.50
  Q 724.22 317.52 724.30 317.55
  Q 724.44 317.58 724.35 317.62
  Q 721.33 318.80 718.55 320.43
  Q 718.15 320.67 717.68 320.75
  Q 716.23 320.99 716.58 322.59
  Z"
/>
<path fill="#6aa4f3" d="
  M 730.80 922.51
  L 730.61 921.47
  Q 730.50 920.86 730.00 921.23
  Q 728.95 922.04 727.67 922.11
  Q 727.22 922.14 726.85 922.40
  Q 725.64 923.26 724.49 922.40
  Q 724.10 922.11 724.08 921.63
  Q 723.51 908.82 723.78 896.00
  C 723.82 894.03 724.76 892.50 724.76 890.64
  Q 724.74 876.84 724.76 863.06
  C 724.76 861.10 725.76 859.54 725.76 857.53
  Q 725.74 843.29 725.76 829.05
  C 725.76 827.10 726.76 825.54 726.76 823.54
  Q 726.74 808.79 726.76 794.05
  C 726.76 792.10 727.76 790.54 727.76 788.53
  Q 727.74 774.27 727.76 760.01
  C 727.76 758.14 728.76 756.73 728.76 754.86
  Q 728.74 740.78 728.76 726.71
  C 728.76 725.02 729.75 723.67 729.75 721.95
  Q 729.75 691.32 729.75 660.70
  C 729.75 659.02 730.75 657.66 730.75 655.95
  Q 730.74 641.45 730.76 626.95
  C 730.76 625.26 731.73 623.95 731.83 622.58
  Q 732.38 615.00 730.57 607.69
  A 0.10 0.10 0.0 0 0 730.41 607.64
  L 730.02 608.00
  Q 729.90 608.11 729.94 608.26
  L 730.81 611.08
  Q 730.99 611.68 730.37 611.74
  Q 730.13 611.76 729.81 611.71
  A 0.19 0.19 0.0 0 0 729.61 611.98
  Q 730.11 613.18 729.51 614.24
  A 0.18 0.18 0.0 0 1 729.18 614.09
  Q 729.52 612.94 728.75 612.46
  L 760.50 365.63
  A 1.71 1.70 -12.2 0 1 761.31 364.38
  C 803.69 338.38 848.73 334.74 897.03 345.00
  A 0.59 0.58 -80.1 0 1 897.49 345.66
  Q 868.06 545.50 838.57 745.51
  C 828.25 815.55 802.43 892.95 730.80 922.51
  Z"
/>
<path fill="#888bdf" d="
  M 721.08 445.44
  C 709.95 443.58 689.21 437.74 683.27 427.10
  Q 682.86 426.36 683.70 426.21
  Q 703.69 422.54 724.01 423.67
  A 0.33 0.33 0.0 0 1 724.32 424.04
  L 721.63 445.03
  Q 721.57 445.52 721.08 445.44
  Z"
/>
<path fill="#888bdf" d="
  M 1188.67 438.55
  C 1248.04 467.50 1282.84 529.63 1277.40 595.06
  C 1270.60 676.78 1202.12 738.48 1120.89 740.02
  A 0.87 0.87 0.0 0 1 1120.01 739.16
  C 1119.53 695.05 1118.78 638.36 1086.02 604.62
  Q 1085.34 603.92 1086.18 603.42
  C 1143.25 569.69 1180.82 503.44 1188.00 438.91
  A 0.47 0.46 16.2 0 1 1188.67 438.55
  Z"
/>
<path fill="#888bdf" d="
  M 704.70 574.11
  Q 704.99 574.14 704.95 574.42
  L 699.48 616.88
  Q 699.42 617.34 698.99 617.55
  C 661.31 635.74 625.80 658.04 594.81 686.46
  A 0.43 0.42 -41.3 0 1 594.20 686.43
  C 551.16 636.69 542.77 567.14 573.06 508.64
  A 0.29 0.29 0.0 0 1 573.54 508.58
  C 606.93 546.66 654.23 569.37 704.70 574.11
  Z"
/>
<path fill="#6aaff3" d="
  M 730.80 922.51
  C 706.37 932.15 679.66 935.34 653.56 933.33
  C 628.24 931.38 605.47 921.90 587.31 904.20
  C 540.27 858.34 551.99 784.49 587.78 736.77
  C 621.80 691.40 674.18 659.45 724.99 636.66
  A 1.23 1.22 -8.3 0 0 725.71 635.70
  L 728.75 612.46
  Q 729.52 612.94 729.18 614.09
  A 0.18 0.18 0.0 0 0 729.51 614.24
  Q 730.11 613.18 729.61 611.98
  A 0.19 0.19 0.0 0 1 729.81 611.71
  Q 730.13 611.76 730.37 611.74
  Q 730.99 611.68 730.81 611.08
  L 729.94 608.26
  Q 729.90 608.11 730.02 608.00
  L 730.41 607.64
  A 0.10 0.10 0.0 0 1 730.57 607.69
  Q 732.38 615.00 731.83 622.58
  C 731.73 623.95 730.76 625.26 730.76 626.95
  Q 730.74 641.45 730.75 655.95
  C 730.75 657.66 729.75 659.02 729.75 660.70
  Q 729.75 691.32 729.75 721.95
  C 729.75 723.67 728.76 725.02 728.76 726.71
  Q 728.74 740.78 728.76 754.86
  C 728.76 756.73 727.76 758.14 727.76 760.01
  Q 727.74 774.27 727.76 788.53
  C 727.76 790.54 726.76 792.10 726.76 794.05
  Q 726.74 808.79 726.76 823.54
  C 726.76 825.54 725.76 827.10 725.76 829.05
  Q 725.74 843.29 725.76 857.53
  C 725.76 859.54 724.76 861.10 724.76 863.06
  Q 724.74 876.84 724.76 890.64
  C 724.76 892.50 723.82 894.03 723.78 896.00
  Q 723.51 908.82 724.08 921.63
  Q 724.10 922.11 724.49 922.40
  Q 725.64 923.26 726.85 922.40
  Q 727.22 922.14 727.67 922.11
  Q 728.95 922.04 730.00 921.23
  Q 730.50 920.86 730.61 921.47
  L 730.80 922.51
  Z
  M 638.01 781.22
  C 624.73 801.13 615.55 843.48 652.01 847.51
  C 690.08 851.72 702.00 811.36 706.10 782.23
  Q 710.73 749.28 715.16 716.33
  Q 715.22 715.83 714.78 716.08
  C 686.24 732.21 656.42 753.59 638.01 781.22
  Z"
/>
<path fill="#888bdf" d="
  M 718.22 1138.68
  C 605.82 1141.00 525.28 1030.68 565.38 923.52
  A 0.47 0.46 32.7 0 1 566.14 923.36
  C 592.12 949.15 625.27 961.29 661.76 962.24
  C 732.75 964.08 792.69 933.33 827.96 871.01
  Q 828.30 870.41 828.79 870.90
  Q 829.75 871.86 831.36 873.65
  C 867.39 913.75 880.77 968.21 867.22 1020.49
  C 849.91 1087.32 788.34 1137.23 718.22 1138.68
  Z"
/>
<path fill="#888bdf" d="
  M 1123.08 1035.11
  C 1080.95 1037.33 1045.22 1002.17 1048.42 959.26
  Q 1048.46 958.75 1048.97 958.85
  C 1093.65 967.61 1145.07 960.26 1185.76 940.09
  A 0.58 0.58 0.0 0 1 1186.58 940.44
  Q 1197.09 974.88 1178.74 1002.99
  C 1166.31 1022.03 1145.81 1033.91 1123.08 1035.11
  Z"
/>
</svg>
